<?xml version="1.0" standalone="no"?>
<!DOCTYPE svg PUBLIC "-//W3C//DTD SVG 20010904//EN"
 "http://www.w3.org/TR/2001/REC-SVG-20010904/DTD/svg10.dtd">
<svg version="1.0" xmlns="http://www.w3.org/2000/svg"
 width="136.000000pt" height="136.000000pt" viewBox="0 0 136.000000 136.000000"
 preserveAspectRatio="xMidYMid meet">
<metadata>
Created by potrace 1.14, written by Peter Selinger 2001-2017
</metadata>
<g transform="translate(0.000000,136.000000) scale(0.100000,-0.100000)"
fill="#000000" stroke="none">
<path d="M59 1053 c-3 -64 1 -217 7 -235 9 -31 44 -79 53 -74 30 19 49 -63 20
-88 -20 -17 -22 -42 -19 -286 1 -117 12 -140 61 -140 51 0 57 24 54 230 -2
213 -1 200 -18 200 -9 0 -14 13 -15 35 -1 30 3 36 32 50 48 23 60 61 62 185 2
124 -1 140 -27 140 -18 0 -19 -8 -19 -125 0 -143 -9 -163 -73 -163 -61 0 -70
20 -72 161 -2 116 -3 122 -24 125 -15 2 -21 -2 -22 -15z m126 -781 c-14 -15
-19 22 -20 161 0 88 3 160 10 172 7 15 11 -26 13 -154 1 -96 0 -176 -3 -179z"/>
<path d="M129 1053 c-3 -45 0 -115 5 -128 3 -8 12 -12 21 -9 12 5 15 23 15 80
0 67 -2 74 -20 74 -12 0 -20 -7 -21 -17z"/>
<path d="M189 1058 c-6 -49 -4 -125 4 -135 5 -6 15 -9 23 -6 10 4 14 24 14 79
0 67 -2 74 -20 74 -11 0 -21 -6 -21 -12z"/>
<path d="M770 1007 c-3 -3 -30 -8 -60 -12 -70 -8 -152 -47 -170 -81 -16 -29
-18 -94 -6 -164 10 -58 9 -84 -3 -88 -22 -7 -87 -65 -105 -93 -10 -17 -20 -55
-23 -87 -4 -52 -2 -60 27 -95 71 -85 264 -150 430 -146 149 4 271 44 350 115
39 35 84 109 75 124 -2 3 -6 23 -9 45 -4 22 -18 51 -31 65 -26 27 -24 37 17
63 38 24 62 79 59 133 -1 23 -32 64 -49 64 -6 0 -12 4 -14 10 -2 7 -41 16 -93
19 -6 1 -16 14 -23 31 -10 22 -31 38 -80 61 -59 28 -78 32 -176 37 -61 2 -113
2 -116 -1z m486 -184 c20 -27 14 -120 -7 -107 -5 3 -9 -2 -9 -11 0 -9 -4 -13
-10 -10 -5 3 -10 0 -10 -8 0 -7 -12 -19 -26 -25 -29 -14 -64 -1 -64 24 0 24
19 54 34 54 16 0 29 27 16 32 -20 7 -14 42 10 55 34 17 50 16 66 -4z"/>
</g>
</svg>
